<?xml version="1.0" encoding="UTF-8" standalone="no"?>
<!-- Created with Inkscape (http://www.inkscape.org/) -->

<svg
   width="210mm"
   height="297mm"
   viewBox="0 0 210 297"
   version="1.1"
   id="svg5"
   inkscape:version="1.1 (c4e8f9ed74, 2021-05-24)"
   sodipodi:docname="handbook.svg"
   xmlns:inkscape="http://www.inkscape.org/namespaces/inkscape"
   xmlns:sodipodi="http://sodipodi.sourceforge.net/DTD/sodipodi-0.dtd"
   xmlns="http://www.w3.org/2000/svg"
   xmlns:svg="http://www.w3.org/2000/svg">
  <sodipodi:namedview
     id="namedview7"
     pagecolor="#ffffff"
     bordercolor="#666666"
     borderopacity="1.0"
     inkscape:pageshadow="2"
     inkscape:pageopacity="0.0"
     inkscape:pagecheckerboard="0"
     inkscape:document-units="mm"
     showgrid="false"
     showguides="false"
     inkscape:snap-intersection-paths="true"
     inkscape:zoom="0.38529391"
     inkscape:cx="286.79405"
     inkscape:cy="756.56529"
     inkscape:window-width="1920"
     inkscape:window-height="1080"
     inkscape:window-x="1920"
     inkscape:window-y="0"
     inkscape:window-maximized="1"
     inkscape:current-layer="layer1"
     inkscape:snap-global="false">
    <inkscape:grid
       type="axonomgrid"
       id="grid904" />
  </sodipodi:namedview>
  <defs
     id="defs2">
    <marker
       style="overflow:visible;"
       id="marker12288"
       refX="0.0"
       refY="0.0"
       orient="auto"
       inkscape:stockid="Arrow2Lend"
       inkscape:isstock="true">
      <path
         transform="scale(1.1) rotate(180) translate(1,0)"
         d="M 8.7185878,4.0337352 L -2.2072895,0.016013256 L 8.7185884,-4.0017078 C 6.9730900,-1.6296469 6.9831476,1.6157441 8.7185878,4.0337352 z "
         style="fill-rule:evenodd;fill:context-stroke;stroke-width:0.62500000;stroke-linejoin:round;"
         id="path12286" />
    </marker>
    <marker
       style="overflow:visible;"
       id="Arrow2Lend"
       refX="0.0"
       refY="0.0"
       orient="auto"
       inkscape:stockid="Arrow2Lend"
       inkscape:isstock="true">
      <path
         transform="scale(1.1) rotate(180) translate(1,0)"
         d="M 8.7185878,4.0337352 L -2.2072895,0.016013256 L 8.7185884,-4.0017078 C 6.9730900,-1.6296469 6.9831476,1.6157441 8.7185878,4.0337352 z "
         style="fill-rule:evenodd;fill:context-stroke;stroke-width:0.62500000;stroke-linejoin:round;"
         id="path12039" />
    </marker>
    <rect
       x="196.39001"
       y="170.07874"
       width="229.12168"
       height="56.692913"
       id="rect5208" />
    <rect
       x="196.39001"
       y="170.07874"
       width="229.12168"
       height="56.692913"
       id="rect6472" />
    <rect
       x="196.39001"
       y="170.07874"
       width="229.12168"
       height="56.692913"
       id="rect8154" />
    <rect
       x="196.39001"
       y="170.07874"
       width="229.12168"
       height="56.692913"
       id="rect9510" />
    <rect
       x="196.39001"
       y="170.07874"
       width="229.12168"
       height="56.692913"
       id="rect9512" />
    <rect
       x="196.39001"
       y="170.07874"
       width="229.12168"
       height="56.692913"
       id="rect10622" />
    <rect
       x="196.39001"
       y="170.07874"
       width="229.12168"
       height="56.692913"
       id="rect10624" />
    <rect
       x="196.39001"
       y="170.07874"
       width="229.12168"
       height="56.692913"
       id="rect11517" />
    <rect
       x="196.39001"
       y="170.07874"
       width="229.12168"
       height="56.692913"
       id="rect11523" />
    <rect
       x="196.39001"
       y="170.07874"
       width="229.12168"
       height="56.692913"
       id="rect22460" />
  </defs>
  <g
     inkscape:label="Layer 1"
     inkscape:groupmode="layer"
     id="layer1">
    <g
       id="g11617"
       transform="translate(-15.263395,-54.100309)">
      <path
         style="fill:none;stroke:#000000;stroke-width:0.264583px;stroke-linecap:butt;stroke-linejoin:miter;stroke-opacity:1"
         d="m 132.0406,220.53839 h 48.13911 l -43.30127,25"
         id="path11493"
         sodipodi:nodetypes="ccc" />
      <path
         style="fill:none;stroke:#000000;stroke-width:0.264583px;stroke-linecap:butt;stroke-linejoin:miter;stroke-opacity:1"
         d="M 136.87844,245.53839 H 80.596064 l 11.609211,-5.44705"
         id="path11495"
         sodipodi:nodetypes="ccc" />
      <path
         style="fill:none;stroke:#000000;stroke-width:0.264583px;stroke-linecap:butt;stroke-linejoin:miter;stroke-opacity:1"
         d="M 136.87844,270.53839 H 80.596064 l -5e-6,-25"
         id="path11497"
         sodipodi:nodetypes="ccc" />
      <path
         style="fill:none;stroke:#000000;stroke-width:0.264583px;stroke-linecap:butt;stroke-linejoin:miter;stroke-opacity:1"
         d="m 136.87844,245.53839 v 25"
         id="path11499"
         sodipodi:nodetypes="cc" />
      <path
         style="fill:none;stroke:#000000;stroke-width:0.264583px;stroke-linecap:butt;stroke-linejoin:miter;stroke-opacity:1"
         d="m 180.17971,220.53839 v 25"
         id="path11501"
         sodipodi:nodetypes="cc" />
      <path
         style="fill:none;stroke:#000000;stroke-width:0.264583px;stroke-linecap:butt;stroke-linejoin:miter;stroke-opacity:1"
         d="m 136.87844,270.53839 43.30127,-25"
         id="path11503"
         sodipodi:nodetypes="cc" />
      <path
         style="fill:none;stroke:#838383;stroke-width:0.264583px;stroke-linecap:butt;stroke-linejoin:miter;stroke-opacity:1"
         d="m 80.596059,250.53839 h 56.282381 l 43.30127,-25"
         id="path11505"
         sodipodi:nodetypes="ccc" />
      <path
         style="fill:none;stroke:#838383;stroke-width:0.264583px;stroke-linecap:butt;stroke-linejoin:miter;stroke-opacity:1"
         d="m 80.596057,255.53839 h 56.282383 l 43.30127,-25"
         id="path11507"
         sodipodi:nodetypes="ccc" />
      <path
         style="fill:none;stroke:#838383;stroke-width:0.264583px;stroke-linecap:butt;stroke-linejoin:miter;stroke-opacity:1"
         d="m 80.596057,260.53839 h 56.282383 l 43.30127,-25"
         id="path11509"
         sodipodi:nodetypes="ccc" />
      <path
         style="fill:none;stroke:#838383;stroke-width:0.264583px;stroke-linecap:butt;stroke-linejoin:miter;stroke-opacity:1"
         d="m 80.596055,265.53839 h 56.282385 l 43.30127,-25"
         id="path11511"
         sodipodi:nodetypes="ccc" />
      <text
         xml:space="preserve"
         transform="matrix(0.12699981,0,-0.06943027,0.12699981,107.43749,207.60255)"
         id="text11521"
         style="font-size:40px;line-height:1.25;font-family:serif;-inkscape-font-specification:serif;white-space:pre;shape-inside:url(#rect11523)"><tspan
           x="196.39062"
           y="205.46875"
           id="tspan25646">Página 120</tspan></text>
    </g>
    <g
       id="g11665"
       transform="translate(13.352097,-23.384011)">
      <path
         style="fill:none;stroke:#000000;stroke-width:0.264583px;stroke-linecap:butt;stroke-linejoin:miter;stroke-opacity:1"
         d="M 64.951906,32.500001 H 160.2147 L 116.91343,57.5"
         id="path939"
         sodipodi:nodetypes="cc" />
      <path
         style="fill:none;stroke:#000000;stroke-width:0.264583px;stroke-linecap:butt;stroke-linejoin:miter;stroke-opacity:1"
         d="M 116.91343,57.5 H 21.65064 L 64.95191,32.500001"
         id="path939-6"
         sodipodi:nodetypes="cc" />
      <path
         style="fill:none;stroke:#000000;stroke-width:0.264583px;stroke-linecap:butt;stroke-linejoin:miter;stroke-opacity:1"
         d="M 116.91343,82.5 H 21.65064 l -5e-6,-25"
         id="path1254"
         sodipodi:nodetypes="ccc" />
      <path
         style="fill:none;stroke:#000000;stroke-width:0.264583px;stroke-linecap:butt;stroke-linejoin:miter;stroke-opacity:1"
         d="m 116.91343,57.499998 v 25"
         id="path1634" />
      <path
         style="fill:none;stroke:#000000;stroke-width:0.264583px;stroke-linecap:butt;stroke-linejoin:miter;stroke-opacity:1"
         d="m 160.2147,32.5 v 25"
         id="path1634-7" />
      <path
         style="fill:none;stroke:#000000;stroke-width:0.264583px;stroke-linecap:butt;stroke-linejoin:miter;stroke-opacity:1"
         d="m 116.91343,82.499998 43.30127,-25"
         id="path1771" />
      <path
         style="fill:none;stroke:#838383;stroke-width:0.264583px;stroke-linecap:butt;stroke-linejoin:miter;stroke-opacity:1"
         d="m 21.650635,62.499999 h 95.262795 l 43.30127,-25"
         id="path1886" />
      <path
         style="fill:none;stroke:#838383;stroke-width:0.264583px;stroke-linecap:butt;stroke-linejoin:miter;stroke-opacity:1"
         d="m 21.650633,67.5 h 95.262797 l 43.30127,-25"
         id="path1886-5" />
      <path
         style="fill:none;stroke:#838383;stroke-width:0.264583px;stroke-linecap:butt;stroke-linejoin:miter;stroke-opacity:1"
         d="m 21.650633,72.5 h 95.262797 l 43.30127,-25"
         id="path1886-3" />
      <path
         style="fill:none;stroke:#838383;stroke-width:0.264583px;stroke-linecap:butt;stroke-linejoin:miter;stroke-opacity:1"
         d="m 21.650631,77.5 h 95.262799 l 43.30127,-25"
         id="path1886-56" />
      <text
         xml:space="preserve"
         transform="matrix(0.12699981,0,-0.06943027,0.12699981,41.612961,20.517639)"
         id="text5206"
         style="font-size:40px;line-height:1.25;font-family:serif;-inkscape-font-specification:serif;white-space:pre;shape-inside:url(#rect5208)"><tspan
           x="196.39062"
           y="205.46875"
           id="tspan25648">Página 1</tspan></text>
      <text
         xml:space="preserve"
         transform="matrix(0.12699981,0,-0.06943027,0.12699981,88.195555,21.219674)"
         id="text8152"
         style="font-size:40px;line-height:1.25;font-family:serif;-inkscape-font-specification:serif;white-space:pre;shape-inside:url(#rect8154)"><tspan
           x="196.39062"
           y="205.46875"
           id="tspan25650">Página 120</tspan></text>
    </g>
    <g
       id="g11649"
       transform="translate(13.352097,-28.176475)">
      <path
         style="fill:none;stroke:#000000;stroke-width:0.264583px;stroke-linecap:butt;stroke-linejoin:miter;stroke-opacity:1"
         d="M 64.951906,99.573871 H 160.2147 l -43.30127,24.999999"
         id="path9482"
         sodipodi:nodetypes="cc" />
      <path
         style="fill:none;stroke:#000000;stroke-width:0.264583px;stroke-linecap:butt;stroke-linejoin:miter;stroke-opacity:1"
         d="M 116.91343,124.57387 H 21.65064 L 64.95191,99.573871"
         id="path9484"
         sodipodi:nodetypes="cc" />
      <path
         style="fill:none;stroke:#000000;stroke-width:0.264583px;stroke-linecap:butt;stroke-linejoin:miter;stroke-opacity:1"
         d="M 116.91343,149.57387 H 21.65064 l -5e-6,-25"
         id="path9486"
         sodipodi:nodetypes="ccc" />
      <path
         style="fill:none;stroke:#000000;stroke-width:0.264583px;stroke-linecap:butt;stroke-linejoin:miter;stroke-opacity:1"
         d="m 116.91343,124.57387 v 25"
         id="path9488" />
      <path
         style="fill:none;stroke:#000000;stroke-width:0.264583px;stroke-linecap:butt;stroke-linejoin:miter;stroke-opacity:1"
         d="m 160.2147,99.57387 v 25"
         id="path9490" />
      <path
         style="fill:none;stroke:#000000;stroke-width:0.264583px;stroke-linecap:butt;stroke-linejoin:miter;stroke-opacity:1"
         d="m 116.91343,149.57387 43.30127,-25"
         id="path9492" />
      <path
         style="fill:none;stroke:#838383;stroke-width:0.264583px;stroke-linecap:butt;stroke-linejoin:miter;stroke-opacity:1"
         d="m 21.650635,129.57387 h 95.262795 l 43.30127,-25"
         id="path9494" />
      <path
         style="fill:none;stroke:#838383;stroke-width:0.264583px;stroke-linecap:butt;stroke-linejoin:miter;stroke-opacity:1"
         d="m 21.650633,134.57387 h 95.262797 l 43.30127,-25"
         id="path9496" />
      <path
         style="fill:none;stroke:#838383;stroke-width:0.264583px;stroke-linecap:butt;stroke-linejoin:miter;stroke-opacity:1"
         d="m 21.650633,139.57387 h 95.262797 l 43.30127,-25"
         id="path9498" />
      <path
         style="fill:none;stroke:#838383;stroke-width:0.264583px;stroke-linecap:butt;stroke-linejoin:miter;stroke-opacity:1"
         d="m 21.650631,144.57387 h 95.262799 l 43.30127,-25"
         id="path9500" />
      <text
         xml:space="preserve"
         transform="matrix(0.12699981,0,-0.06943027,0.12699981,41.612961,87.591509)"
         id="text9504"
         style="font-size:40px;line-height:1.25;font-family:serif;-inkscape-font-specification:serif;white-space:pre;shape-inside:url(#rect9510)"><tspan
           x="196.39062"
           y="205.46875"
           id="tspan25652">Página 1</tspan></text>
      <text
         xml:space="preserve"
         transform="matrix(0.12699981,0,-0.06943027,0.12699981,88.195555,88.293544)"
         id="text9508"
         style="font-size:40px;line-height:1.25;font-family:serif;-inkscape-font-specification:serif;white-space:pre;shape-inside:url(#rect9512)"><tspan
           x="196.39062"
           y="205.46875"
           id="tspan25654">Página 120</tspan></text>
      <path
         style="fill:none;stroke:#15b400;stroke-width:0.67;stroke-linecap:butt;stroke-linejoin:miter;stroke-miterlimit:4;stroke-dasharray:2.68, 2.68;stroke-dashoffset:0;stroke-opacity:1"
         d="M 68.809175,124.56556 112.11044,99.565558"
         id="path9627" />
      <path
         style="fill:none;stroke:#15b400;stroke-width:0.67;stroke-linecap:butt;stroke-linejoin:miter;stroke-miterlimit:4;stroke-dasharray:2.68, 2.68;stroke-dashoffset:0;stroke-opacity:1"
         d="m 68.809175,124.56556 v 25.00831"
         id="path9662" />
    </g>
    <g
       id="g11631"
       transform="translate(4.9299503,-45.448994)">
      <path
         style="fill:none;stroke:#000000;stroke-width:0.264583px;stroke-linecap:butt;stroke-linejoin:miter;stroke-opacity:1"
         d="m 64.951906,181.46747 h 56.282384 l -43.301272,25"
         id="path10590"
         sodipodi:nodetypes="ccc" />
      <path
         style="fill:none;stroke:#000000;stroke-width:0.264583px;stroke-linecap:butt;stroke-linejoin:miter;stroke-opacity:1"
         d="M 77.933018,206.46747 H 21.65064 l 43.30127,-25"
         id="path10592"
         sodipodi:nodetypes="ccc" />
      <path
         style="fill:none;stroke:#000000;stroke-width:0.264583px;stroke-linecap:butt;stroke-linejoin:miter;stroke-opacity:1"
         d="M 77.933018,231.46747 H 21.65064 l -5e-6,-25"
         id="path10594"
         sodipodi:nodetypes="ccc" />
      <path
         style="fill:none;stroke:#000000;stroke-width:0.264583px;stroke-linecap:butt;stroke-linejoin:miter;stroke-opacity:1"
         d="m 77.933018,206.46747 v 25"
         id="path10596"
         sodipodi:nodetypes="cc" />
      <path
         style="fill:none;stroke:#000000;stroke-width:0.264583px;stroke-linecap:butt;stroke-linejoin:miter;stroke-opacity:1"
         d="m 121.23429,181.46747 v 25"
         id="path10598"
         sodipodi:nodetypes="cc" />
      <path
         style="fill:none;stroke:#000000;stroke-width:0.264583px;stroke-linecap:butt;stroke-linejoin:miter;stroke-opacity:1"
         d="m 77.933018,231.46747 43.301272,-25"
         id="path10600"
         sodipodi:nodetypes="cc" />
      <path
         style="fill:none;stroke:#838383;stroke-width:0.264583px;stroke-linecap:butt;stroke-linejoin:miter;stroke-opacity:1"
         d="m 21.650635,211.46747 h 56.282383 l 43.301272,-25"
         id="path10602"
         sodipodi:nodetypes="ccc" />
      <path
         style="fill:none;stroke:#838383;stroke-width:0.264583px;stroke-linecap:butt;stroke-linejoin:miter;stroke-opacity:1"
         d="m 21.650633,216.46747 h 56.282385 l 43.301272,-25"
         id="path10604"
         sodipodi:nodetypes="ccc" />
      <path
         style="fill:none;stroke:#838383;stroke-width:0.264583px;stroke-linecap:butt;stroke-linejoin:miter;stroke-opacity:1"
         d="m 21.650633,221.46747 h 56.282385 l 43.301272,-25"
         id="path10606"
         sodipodi:nodetypes="ccc" />
      <path
         style="fill:none;stroke:#838383;stroke-width:0.264583px;stroke-linecap:butt;stroke-linejoin:miter;stroke-opacity:1"
         d="m 21.650631,226.46747 h 56.282387 l 43.301272,-25"
         id="path10608"
         sodipodi:nodetypes="ccc" />
      <text
         xml:space="preserve"
         transform="matrix(0.12699981,0,-0.06943027,0.12699981,47.159896,169.48511)"
         id="text10612"
         style="font-size:40px;line-height:1.25;font-family:serif;-inkscape-font-specification:serif;white-space:pre;shape-inside:url(#rect10622)"><tspan
           x="196.39062"
           y="205.46875"
           id="tspan25656">Página 1</tspan></text>
    </g>
    <path
       style="fill:none;stroke:#15b400;stroke-width:0.765;stroke-linecap:butt;stroke-linejoin:miter;stroke-miterlimit:4;stroke-dasharray:none;stroke-opacity:1;marker-mid:url(#Arrow2Lend);marker-end:url(#marker12288)"
       d="m 137.4519,138.02968 c 0,0 19.54524,0.0872 16.26892,19.39553"
       id="path12016"
       sodipodi:nodetypes="cc" />
    <g
       id="g22458"
       transform="translate(28.097908,53.616218)">
      <path
         style="fill:none;stroke:#000000;stroke-width:0.264583px;stroke-linecap:butt;stroke-linejoin:miter;stroke-opacity:1"
         d="m 64.951906,181.46747 h 56.282384 l -43.301272,25"
         id="path22434"
         sodipodi:nodetypes="ccc" />
      <path
         style="fill:none;stroke:#000000;stroke-width:0.264583px;stroke-linecap:butt;stroke-linejoin:miter;stroke-opacity:1"
         d="M 77.933018,206.46747 H 21.65064 l 43.30127,-25"
         id="path22436"
         sodipodi:nodetypes="ccc" />
      <path
         style="fill:none;stroke:#000000;stroke-width:0.264583px;stroke-linecap:butt;stroke-linejoin:miter;stroke-opacity:1"
         d="M 77.933018,231.46747 H 21.65064 l -5e-6,-25"
         id="path22438"
         sodipodi:nodetypes="ccc" />
      <path
         style="fill:none;stroke:#000000;stroke-width:0.264583px;stroke-linecap:butt;stroke-linejoin:miter;stroke-opacity:1"
         d="m 77.933018,206.46747 v 25"
         id="path22440"
         sodipodi:nodetypes="cc" />
      <path
         style="fill:none;stroke:#000000;stroke-width:0.264583px;stroke-linecap:butt;stroke-linejoin:miter;stroke-opacity:1"
         d="m 121.23429,181.46747 v 25"
         id="path22442"
         sodipodi:nodetypes="cc" />
      <path
         style="fill:none;stroke:#000000;stroke-width:0.264583px;stroke-linecap:butt;stroke-linejoin:miter;stroke-opacity:1"
         d="m 77.933018,231.46747 43.301272,-25"
         id="path22444"
         sodipodi:nodetypes="cc" />
      <path
         style="fill:none;stroke:#838383;stroke-width:0.264583px;stroke-linecap:butt;stroke-linejoin:miter;stroke-opacity:1"
         d="m 21.650635,211.46747 h 56.282383 l 43.301272,-25"
         id="path22446"
         sodipodi:nodetypes="ccc" />
      <path
         style="fill:none;stroke:#838383;stroke-width:0.264583px;stroke-linecap:butt;stroke-linejoin:miter;stroke-opacity:1"
         d="m 21.650633,216.46747 h 56.282385 l 43.301272,-25"
         id="path22448"
         sodipodi:nodetypes="ccc" />
      <path
         style="fill:none;stroke:#838383;stroke-width:0.264583px;stroke-linecap:butt;stroke-linejoin:miter;stroke-opacity:1"
         d="m 21.650633,221.46747 h 56.282385 l 43.301272,-25"
         id="path22450"
         sodipodi:nodetypes="ccc" />
      <path
         style="fill:none;stroke:#838383;stroke-width:0.264583px;stroke-linecap:butt;stroke-linejoin:miter;stroke-opacity:1"
         d="m 21.650631,226.46747 h 56.282387 l 43.301272,-25"
         id="path22452"
         sodipodi:nodetypes="ccc" />
      <text
         xml:space="preserve"
         transform="matrix(0.12699981,0,-0.06943027,0.12699981,47.159896,169.48511)"
         id="text22456"
         style="font-size:40px;line-height:1.25;font-family:serif;-inkscape-font-specification:serif;white-space:pre;shape-inside:url(#rect22460)"><tspan
           x="196.39062"
           y="205.46875"
           id="tspan25658">Página 1</tspan></text>
    </g>
    <path
       id="path22506"
       style="color:#000000;fill:#000000;stroke-width:3.77953;stroke-linecap:round;stroke-linejoin:round;-inkscape-stroke:none"
       d="M 188.28125 1078.125 L 188.48828 1077.6738 L 188.66992 1077.207 C 188.30365 1077.2299 187.93829 1077.255 187.57031 1077.2715 L 187.56641 1077.2832 L 187.1582 1078.168 C 187.53267 1078.1539 187.90849 1078.1456 188.28125 1078.125 z "
       transform="scale(0.26458333)" />
    <path
       id="path23212"
       style="color:#000000;fill:#000000;stroke-width:3.77953;stroke-linecap:round;stroke-linejoin:round;-inkscape-stroke:none"
       d="M 231.7832 973.72656 L 231.07422 974.25 C 231.29554 974.4991 231.51117 974.75319 231.72852 975.00586 L 232.4375 974.48242 C 232.2203 974.22946 232.00434 973.976 231.7832 973.72656 z "
       transform="scale(0.26458333)" />
    <path
       id="path23210"
       style="color:#000000;fill:#000000;stroke-width:3.77953;stroke-linecap:round;stroke-linejoin:round;-inkscape-stroke:none"
       d="M 184.75391 952.54492 C 150.05186 952.54492 121.90429 980.68465 121.9043 1015.3867 C 121.90431 1050.0888 150.05188 1078.2285 184.75391 1078.2285 C 185.56003 1078.2285 186.35943 1078.1981 187.1582 1078.168 L 187.56641 1077.2832 L 187.57031 1077.2715 C 186.63625 1077.3133 185.69831 1077.3418 184.75391 1077.3418 C 150.53011 1077.3418 122.79103 1049.6105 122.79102 1015.3867 C 122.79101 981.16291 150.5301 953.42187 184.75391 953.42188 C 203.18624 953.42188 219.72624 961.47772 231.07422 974.25 L 231.7832 973.72656 C 220.2699 960.73944 203.47117 952.54492 184.75391 952.54492 z "
       transform="scale(0.26458333)" />
    <path
       id="path23494"
       style="color:#000000;fill:#000000;stroke-width:3.77953;stroke-linecap:round;stroke-linejoin:round;-inkscape-stroke:none"
       d="M 211.23047 938.32422 C 176.52842 938.32422 148.38085 966.46398 148.38086 1001.166 C 148.38087 1027.9258 165.12138 1050.7787 188.69531 1059.8398 L 188.69531 1058.8945 C 165.61647 1049.8827 149.26758 1027.4387 149.26758 1001.166 C 149.26757 966.94224 177.00666 939.20117 211.23047 939.20117 C 229.6628 939.20117 246.2028 947.25699 257.55078 960.0293 L 258.25977 959.50586 C 246.74647 946.51876 229.94773 938.32422 211.23047 938.32422 z "
       transform="scale(0.26458333)" />
    <path
       id="path23496"
       style="color:#000000;fill:#000000;stroke-width:3.77953;stroke-linecap:round;stroke-linejoin:round;-inkscape-stroke:none"
       d="M 233.01953 925.96094 C 198.31748 925.96094 170.16991 954.1007 170.16992 988.80273 C 170.16993 1006.2109 177.25462 1021.9662 188.69531 1033.3477 L 188.69531 1032.0918 C 177.78432 1020.9243 171.05664 1005.6522 171.05664 988.80273 C 171.05663 954.57896 198.79572 926.83789 233.01953 926.83789 C 251.45186 926.83789 267.99187 934.89371 279.33984 947.66602 L 280.04883 947.14258 C 268.53553 934.15548 251.73679 925.96094 233.01953 925.96094 z "
       transform="scale(0.26458333)" />
    <path
       id="path23498"
       style="color:#000000;fill:#000000;stroke-width:3.77953;stroke-linecap:round;stroke-linejoin:round;-inkscape-stroke:none"
       d="M 267.40625 904.59961 C 232.7042 904.59961 204.55663 932.73933 204.55664 967.44141 C 204.55664 969.4346 204.65571 971.40387 204.83789 973.34961 L 205.68555 972.85352 C 205.53061 971.07012 205.44336 969.26723 205.44336 967.44336 C 205.44335 933.21955 233.18244 905.47852 267.40625 905.47852 C 285.83858 905.47852 302.37858 913.53437 313.72656 926.30664 L 314.43555 925.7832 C 302.92225 912.79607 286.12351 904.60156 267.40625 904.60156 L 267.40625 904.59961 z "
       transform="scale(0.26458333)" />
    <path
       id="path23500"
       style="color:#000000;fill:#000000;stroke-width:3.77953;stroke-linecap:round;stroke-linejoin:round;-inkscape-stroke:none"
       d="M 293.88281 890.37891 C 259.18076 890.37891 231.0332 918.51867 231.0332 953.2207 C 231.0332 954.78378 231.10634 956.32888 231.21875 957.86328 L 232.05859 957.37109 C 231.96781 955.99932 231.91992 954.61552 231.91992 953.2207 C 231.91991 918.99693 259.65901 891.25586 293.88281 891.25586 C 312.31515 891.25586 328.85516 899.31168 340.20312 912.08398 L 340.91211 911.56055 C 329.39881 898.57345 312.60007 890.37891 293.88281 890.37891 z "
       transform="scale(0.26458333)" />
    <path
       id="path23502"
       style="color:#000000;fill:#000000;stroke-width:3.77953;stroke-linecap:round;stroke-linejoin:round;-inkscape-stroke:none"
       d="M 315.67188 878.01562 C 280.96983 878.01562 252.82226 906.15539 252.82227 940.85742 C 252.82227 942.28113 252.88519 943.68976 252.97852 945.08984 L 253.83203 944.58789 C 253.7586 943.35267 253.70899 942.11113 253.70898 940.85742 C 253.70897 906.63365 281.44807 878.89258 315.67188 878.89258 C 334.1042 878.89258 350.64421 886.94839 361.99219 899.7207 L 362.70117 899.19727 C 351.18787 886.21017 334.38912 878.01564 315.67188 878.01562 z "
       transform="scale(0.26458333)" />
  </g>
</svg>
